<?xml version="1.0" encoding="UTF-8"?>
<svg width="24px" height="23px" viewBox="0 0 24 23" version="1.1" xmlns="http://www.w3.org/2000/svg" xmlns:xlink="http://www.w3.org/1999/xlink">
    <title>Icon/01 XL - XS/03 social/04 linkedin/01 enabled</title>
    <g id="Symbols" stroke="none" stroke-width="1" fill="none" fill-rule="evenodd">
        <g id="Footer/01-XL/01-default" transform="translate(-337.000000, -523.000000)">
            <g id="Icon/01-XL---XS/03-social/04-linkedin/01-enabled" transform="translate(337.000000, 523.000000)">
                <polygon id="Path" points="0 0 24 0 24 24 0 24"></polygon>
                <path d="M18.3856762,9 C21.5298043,9 24,10.994585 24,15.2896088 L24,23 L18.9835409,23 L18.9835409,15.8241994 C18.9835409,13.9459434 18.1988434,12.6637102 16.4733096,12.6637102 C15.1534698,12.6637102 14.419484,13.5289889 14.077847,14.362898 C13.9680351,14.6194566 13.9670546,14.9624418 13.9690155,15.3177736 L13.9697509,23 L9,23 L9.00082341,22.8322851 C9.00809683,21.329558 9.0597141,10.2104331 9,9.13332089 L13.9697509,9.13332089 L13.9697509,11.3095883 C14.2633452,10.3580431 15.8514235,9 18.3856762,9 Z M6,9 L6,23 L1,23 L1,9 L6,9 Z M3.52261431,0 C5.6500994,0 6.9582505,1.50611247 7,3.49714751 C7,5.45205107 5.6500994,7 3.48260437,7 L3.44085487,7 C1.35337972,7 0,5.45775604 0,3.50285249 C0,1.50991578 1.39338966,0 3.52261431,0 Z" id="Combined-Shape" fill="#2D2D2C" fill-rule="evenodd"></path>
            </g>
        </g>
    </g>
</svg>